<svg width="1440" height="562" viewBox="0 0 1440 562" fill="none" xmlns="http://www.w3.org/2000/svg">
<path d="M1490.83,321.235C1485.53,302.612 1352.12,204.168 1153.17,239.613C1003.49,266.28 833.635,349.791 595.077,333.042C418.085,320.615 299.686,202.929 -13.3609,300.215" />
<path d="M1495.99,321.235C1490.69,302.612 1352.13,179.392 1153.17,214.837C1003.49,241.504 833.636,349.791 595.078,333.042C418.086,320.616 299.686,215.317 -13.3606,312.603" />
<path d="M1490.83,308.847C1485.53,290.224 1352.12,185.705 1153.17,221.15C1003.49,247.817 838.796,362.179 600.238,345.43C423.246,333.004 299.686,195.839 -13.3611,293.124" />
</svg>
