<svg fill="none" xmlns="http://www.w3.org/2000/svg" viewBox="0 0 4174 578">
<path d="M3518.96 259.925s-87.63-114.595-87.63-123.743c5.29-9.63 232.08-102.558 232.08-102.558 13.48 2.407 91.52 128.571 99.18 169.967 4.82 26-16.85 42.852-40.92 42.852 21.18 5.778 35.63 33.705 42.37 55.372 2.27-8.755 5.78-50.075 35.63-57.297-45.74-16.371 13.48-113.151 37.56-119.41-25.04-4.815-32.75-34.19-36.12-55.372-2.4 22.63-21.66 55.372-48.63 61.631 26.49 6.271 59.23 49.112 69.82 65.001 14.57 21.859 32.74 71.743 35.63 89.076 0-19.259 22.63-62.594 41.41-65.483-22.63-2.889-39.48-39.963-41.89-65.952-2.89 26.001-28.89 64.508-52.48 66.915 33.7 23.112 61.14 96.96 71.73 142.522 21.35 91.857 13.49 151.189-9.14 190.189-24.5 42.23-307.19-7.222-320.67-21.185-8.25-12.038-28.89-214.746-12.52-224.363 13.2-7.755 372.67 15.395 382.3 26.963 9.63 11.568-.48 232.067 5.78 240.746 15.89 17.322 161.94-217.646 166.6-235.931 3.68-14.445 25.03-153.281 25.03-174.308 0-52.969 55.86-148.304 48.65-154.564-7.42-6.438-192.13 92.928-211.39 105.447-15.41 10.015-22.15 130.015-15.41 219.573 15.41 11.544 172.8-150.238 167.56-167.559-12.04-14.457-365.93-21.679-381.82-15.416-15.89 6.263-168.04 153.515-330.79 208.964-160.82 57.96-339.93-22.331-463.19-141.078-123.26-118.747-304.31-272.824-564.31 54.59-260.01 327.415-456.46 223.413-543.12 117.485-200.13-244.598-236.9-33.063-435.27-198.375-173.34-144.448-360.16-129.04-627.868 148.299-250.688 259.705-481.82 171.412-602.828-15.407C66.47 191.927 29.106 133.635 21.402 121.437" stroke="currentColor"/>
<path d="M3528.59 259.925s-87.63-114.595-87.63-123.743c5.29-9.63 232.08-112.188 232.08-112.188 13.48 2.408 81.89 128.571 89.55 169.967 4.82 26-13 52.482-37.07 52.482 21.19 5.778 41.41 29.853 48.15 51.52 2.27-8.755-3.85-40.445 26-47.668-45.74-16.37 23.11-114.113 47.19-120.373-25.04-4.814-32.75-39.004-36.12-60.186-2.4 22.63-12.03 55.372-39 61.631 26.49 6.271 53.45 49.112 64.04 65.001 14.57 21.859 28.89 66.928 31.78 84.261 0-19.259 27.45-57.779 46.22-60.668-22.63-2.889-44.29-30.334-46.7-56.322-2.89 26.001-33.71 54.878-57.3 57.285 33.71 23.112 65.96 96.96 76.55 142.522 21.35 91.857 27.93 151.188 5.3 190.189-24.5 42.23-312-7.222-325.48-21.185-8.25-12.038-38.52-214.746-22.15-224.363 13.2-7.755 367.86 29.84 377.49 41.408 9.63 11.567 4.33 207.992 10.59 216.671 15.89 17.322 181.2-208.016 185.86-226.301 3.68-14.445 5.77-153.281 5.77-174.308 0-52.969 55.86-157.934 48.65-164.193-7.42-6.439-192.13 102.557-211.39 115.076-15.41 10.015-12.52 130.015-5.78 219.573 15.41 11.544 153.54-150.238 148.3-167.559-12.04-14.457-365.93-17.827-381.82-11.564-15.89 6.263-202.71 174.478-324.05 205.112-173.33 40.626-264.21 37.639-441.04-115.559-159.86-138.488-285.05-340.714-631.72 51.52-273.63 309.587-441.05 175.926-521.94 69.998-170.87-223.765-242.67-9.63-431.41-194.523-157.91-154.68-338.97-96.298-654.833 184.893-315.859 281.191-454.529 84.743-548.901-28.889-75.498-90.906-135.46-188.103-156.004-225.339" stroke="currentColor"/>
<path d="M3523.77 264.74s-87.63-114.595-87.63-123.743c5.3-9.63 232.08-102.558 232.08-102.558 13.48 2.407 91.52 128.571 99.19 169.967 4.81 26-16.85 42.852-40.93 42.852 21.19 5.778 35.63 24.075 42.37 45.742 2.27-8.755-3.85-40.445 26-47.668-45.74-16.37 23.12-113.15 47.19-119.41-25.04-4.814-32.74-24.559-36.11-45.741-2.41 22.63-12.04 45.741-39 52.001 26.48 6.271 53.44 49.112 64.04 65.001 14.57 21.859 28.89 62.113 31.78 79.446 0-19.259 22.63-52.964 41.4-55.853-22.63-2.889-39.48-30.334-41.89-56.322-2.89 26.001-24.07 54.878-47.66 57.285 33.7 23.112 56.33 96.96 66.91 142.522 21.35 91.857 18.31 151.188-4.32 190.189-24.5 42.229-302.38-7.222-315.86-21.185-8.24-12.038-38.52-214.746-22.15-224.363 13.2-7.755 372.68 15.395 382.31 26.963 9.63 11.568-.48 222.437 5.78 231.116 15.88 17.322 171.56-208.016 176.22-226.301 3.68-14.445 15.41-153.281 15.41-174.308 0-52.969 55.85-148.304 48.64-154.564-7.41-6.438-192.13 92.928-211.39 105.447-15.4 10.015-22.14 130.015-15.4 219.573 15.4 11.544 172.79-150.238 167.56-167.559-12.04-14.457-365.94-17.827-381.83-11.564-15.89 6.263-141.07 111.884-245.08 171.589-146.37 64.519-306.23 108.366-493.04-58.924-167.56-150.044-363.93-327.233-625.94 2.107-236.74 297.563-420.83 278.303-546.98 100.151-199.93-282.352-248.36-.754-416.01-171.411-160.82-163.708-362.08-159.856-654.827 161.781s-508.455 46.223-614.383-86.669C45.477 174.016 8.884 102.498 1.18 80.029" stroke="currentColor"/>
</svg>
