<svg width="4533" height="700" viewBox="0 0 4533 700" fill="none" xmlns="http://www.w3.org/2000/svg">
<path d="M4211.34 60.7346C4353.13 83.5701 4324.58 175.863 4178.99 173.009C4033.39 170.154 4040.83 56.0547 4133.79 44.1822C4264.63 27.4709 4595.82 118.775 4440.71 200.602C4174.26 313.874 3864.73 177.268 3886.21 91.3238C3897.63 45.6529 4001.14 -8.32977 4227.04 2.53682C4452.94 13.4034 4553.22 130.189 4498.73 191.087C4444.23 251.985 3973.44 363.304 3912.54 380.431C3851.63 397.558 3834.04 372.845 3738.39 276.72C3659.41 197.34 3621.35 158.441 3629.68 136.853C3638.01 115.265 3662.26 94.0402 3693.19 88.8034C3724.12 83.5665 3747.43 135.583 3768.48 160.164C3795.77 192.039 3807.86 221.538 3840.69 230.098C3857.34 234.44 3892.84 221.7 3929.67 208.689C3984.86 189.188 3913.96 164.925 3890.17 143.513C3844.28 102.206 3826.07 95.4637 3831.81 88.8419C3837.56 82.2201 3858.8 85.4575 3876.85 92.1335C3908.24 103.74 3990.9 122.083 4074.31 146.072C4086.67 149.626 4095.67 182.504 4106.67 185.584C4143.14 195.799 4162.81 198.223 4176.61 196.796C4187.55 194.417 4198.97 174.875 4183.75 170.63C4134.26 156.834 3901.12 78.9727 3871.62 64.1035C3842.12 49.2343 3766.56 81.83 3749.03 78.9727C3740.59 77.5965 3733.21 68.9513 3726.19 62.0564C3719.03 55.0227 3714.25 47.6308 3719.05 41.5473C3723.59 35.8063 3728.31 34.595 3750.93 28.8568C3773.56 23.1186 3824.99 23.4816 3837.84 28.296C3850.68 33.1104 3866.28 59.5837 3882.09 59.5837C3928.24 64.5407 4124.75 11.2793 4178.99 13.1611C4243.05 15.3837 4479.7 137.804 4503.49 169.203C4527.28 200.602 4522.52 246.15 4471.13 271.011C4441.63 285.283 4094.29 429.908 3982 467.967C3878.28 503.123 3851.77 450.678 3783.02 379.479C3723.24 317.559 3682.62 270.372 3649.69 234.981C3510.23 85.1173 3346.9 159.229 3195.02 317.559C3032.81 486.649 2820.18 518.223 2584.53 274.304C2360.38 42.298 2147.92 25.1063 2004.51 148.47C1821.66 305.763 1762.67 148.47 1562.13 356.883C1380.89 545.231 1135.47 350.984 988.009 240.88C840.548 130.775 614.102 -28.1652 340.162 258.575C234.972 368.679 123.557 568.572 128.8 561.362" stroke="currentColor"/>
<path d="M4206.5 66.8211C4358.74 90.6144 4334 160.075 4188.42 157.221C4042.85 154.366 4039.99 74.4337 4132.29 58.2569C4277.86 32.741 4590.9 126.039 4435.81 207.875C4328.49 253.509 4215.21 246.117 4119.6 229.487C3977.86 204.833 3871.98 148.695 3884.81 97.3662C3896.23 51.6906 4007.9 -9.3523 4220.08 15.5623C4475.06 45.5037 4522.42 144.119 4473.9 198.359C4419.41 259.264 3973.39 370.374 3912.5 387.502C3851.6 404.631 3834.01 373.254 3738.38 277.12C3659.41 197.732 3621.35 158.828 3629.68 137.238C3638.01 115.647 3671.77 108.694 3702.7 103.457C3733.62 98.2195 3756.93 135.968 3777.97 160.551C3805.26 192.429 3822.11 221.932 3854.93 230.492C3871.58 234.834 3883.03 233.716 3920.11 221.452C3981.95 200.993 3919.23 167.024 3894.9 143.899C3850.14 101.367 3837.77 92.038 3843.52 85.4155C3849.26 78.793 3874.79 86.7667 3876.82 87.7559C3894.82 96.5222 3990.84 125.321 4074.25 149.313C4086.61 152.867 4098.46 175.281 4109.45 178.361C4145.92 188.578 4163.69 193.857 4177.48 192.429C4188.42 190.05 4193.18 164.797 4177.96 160.551C4128.48 146.754 3898.7 78.7197 3871.58 71.1419C3844.47 63.5641 3760.45 88.0131 3742.92 85.1556C3734.48 83.7792 3727.1 74.1503 3720.08 67.2546C3712.92 60.2202 3706.24 51.9393 3711.04 45.8551C3715.58 40.1135 3722.11 40.2189 3742.92 34.9402C3763.73 29.6614 3824.96 29.5643 3837.81 34.3792C3850.65 39.1941 3866.25 56.1543 3882.05 56.1543C3928.2 61.1118 4124.68 5.94175 4178.91 7.8237C4242.97 10.0465 4475.77 138.189 4499.56 169.591C4523.34 200.993 4518.59 252.256 4467.21 277.12C4437.71 291.393 4094.23 407.485 3981.95 445.548C3878.24 480.708 3853.53 441.557 3784.78 370.374C3709.08 292 3711.98 292.009 3667.88 240.388C3550.89 103.457 3374.92 149.313 3192.07 343.119C3017.47 528.179 2822.6 527.497 2592.39 265.948C2393.81 40.3319 2189.33 -18.6527 2026.14 130.775C1812.78 326.136 1791.85 94.9982 1562.13 356.883C1365.51 581.024 1095.16 330.34 949.669 204.506C804.173 78.6719 561.317 -43.33 286.092 339.187C170.089 500.412 124.868 577.092 104.223 602.652" stroke="currentColor"/>
<path d="M4192.11 60.6962C4333.78 83.5199 4324.28 167.206 4178.8 164.353C4033.32 161.5 4039.98 70.2061 4132.21 54.0393C4277.69 28.5392 4584.8 116.74 4429.82 198.525C4163.59 311.738 3850.02 178.898 3871.49 92.9979C3884.11 42.5153 4008.02 -16.378 4224.86 9.08659C4479.67 39.0107 4527.75 136.775 4479.26 190.981C4424.81 251.848 3973.42 363.11 3912.57 380.227C3851.72 397.345 3824.63 372.645 3729.06 276.57C3650.14 197.231 3621.62 158.352 3629.94 136.775C3638.27 115.198 3672.01 103.494 3702.91 98.2603C3733.81 93.0262 3752.36 135.506 3773.38 160.074C3800.65 191.932 3817.49 221.416 3850.29 229.972C3866.93 234.311 3883.38 245.353 3920.18 232.349C3975.32 212.858 3919.3 166.543 3894.98 143.432C3850.25 100.926 3832.19 93.5054 3837.93 86.887C3843.67 80.2686 3874.88 89.1883 3876.91 90.177C3894.9 98.9378 3990.86 120.111 4074.21 144.087C4086.56 147.64 4088.9 189.059 4099.88 192.138C4136.32 202.348 4165.49 195.261 4179.28 193.834C4190.21 191.457 4198.77 170.023 4183.55 165.78C4134.11 151.991 3898.78 81.1463 3871.68 73.5732C3844.59 66.0001 3772.38 77.9768 3754.87 75.121C3746.43 73.7455 3739.07 69.9229 3732.05 63.0315C3724.89 56.0014 3718.21 43.7285 3723.02 37.6482C3739.07 17.3139 3817.16 6.12569 3837.93 13.9129C3850.77 18.7248 3865.37 55.742 3881.16 55.742C3927.27 60.6964 4124.6 15.0704 4178.8 16.9512C4242.81 19.1727 4494.47 137.726 4518.24 169.109C4542.01 200.491 4537.26 232.702 4485.92 257.55C4456.44 271.815 4094.18 416.365 3981.98 454.404C3878.34 489.542 3864.08 446.8 3791.81 379.276C3660.01 232.349 3498.79 -18.6527 3205.83 313.627C2912.87 645.907 2720.19 393.066 2598.29 276.57C2476.39 160.074 2237.3 -77.392 1982.88 166.166C1821.66 320.509 1798.06 73.7565 1568.02 350.984C1348.52 615.513 1117.77 354.916 995.873 244.812C873.972 134.707 573.151 -91.4004 315.585 295.932C109.532 605.798 20.0061 693.75 1 698.993" stroke="currentColor"/>
</svg>
