<svg fill="none" xmlns="http://www.w3.org/2000/svg" viewBox="0 0 4557 636">
<path d="M4556 313.224c-104.2-73.416-182.58-36.803-221.78-8.603-39.19 28.2-54.68 86.034-43.49 86.034 13.86 0 0-30.112-17.68-17.207-9.09 6.627-8.13 30.112 8.12 31.068 36.8 2.165 32.98-74.085 29.63-148.169-3.34-74.085-23.42-211.738 4.31-211.738 27.72 0 8.6 73.725-56.88 146.735-39.78 44.346 10.73 114.819 57.6 92.725 37.51-17.685 53.29-87.92 18.39-95.593-34.89-7.673-43.49 67.871-110.88 132.396-67.4 64.525-103.07 80.006-88.9 82.21 21.5 3.346 30.19-47.036-10.52-67.393s-51.94-54.169-52.1-57.356c1.75 2.231 17.07 54.796 23.42 82.688 8.61 37.759 19.12 65.481-.48 83.166-10.36 9.352-38.71 1.519-38.71-13.861 0-18.163 45.41-37.281 40.63 0-4.78 37.281-86.52 108.02-187.84 88.548-56.82-7.104-152.64-73.015-191.3-119.759-28.39-34.329 31.24-87.877 51.31-24.545 9.19 28.988-46.42 65.793-61.56 84.243-13.35 16.26-31.59 63.324-31.59 75.556 0 12.233-5.7 65.728 3.8 73.483 14.73 12.034 18.55 24.175 30.49 22.508 10.62-1.481 24.87-50.988 17.78-50.988-5.9 0-10.12 38.316.96 40.514 11.07 2.197 25.36-49.831 31-63.004 5.64-13.173-11.39-61.075.82-78.012 12.22-16.937 79.4-31.252 127.34-43.485 47.93-12.232 39.29-66.841 20.02-89.424-18.56-21.761-87.34-74.828-132.23-106.153-59.79-49.39-120.23-54.182-131.04-54.182-16.45 0-16.58 48.288-49.7 54.874 7.99 4.235 9.41 10.067 15.05 19.476 5.64 9.408-3.76 26.733-11.74 26.733 9.39-15.525-.48-16.439-4.23-8.911-8.46 12.232-31.02 23.342-34.78.759 26.32-23.523 34.71-33.86 19.72-40.745-22.09-10.143 9.42-11.204 8.01-22.026-.37-2.829-12.22-.123-25.38-5.298-12.22-2.822-29.98-30.192-10.81-26.354 21.15 4.235 35.36 7.976 51.81 9.122 5.17.36.43 7.114-3.32 7.798-5.55 1.01-36.27-4.497-47.08-7.696-7.05-2.086-22.13-7.75-22.13-17.197 0-14.931 30.34-25.444 29.68-23.54-3.16 9.089 6.84 13.325 11.25 13.637 3.27.231-1.98-7.073-5.81-7.894-6.69-1.434 11.47 15.295 17.57 15.885 22.58-4.414 15.89-12.539 13.08-21.659-2.81-9.12-5.85-33.814 20.69-36.287 8.41-.783 19.66-1.571 24.44 2.868 6.36 10.378-1.09 24.761-3.13 19.59-2.91-7.376-9.15-10.506-14.77-11.465-6.43-1.096-14.08 1.52-14.94 2.868 0 1.434 1.87.478 6.29.478 12.19 0 16.73 8.916 19.6 12.905-.82.956-10.04-2.727-15.22-3.989-3.41-.834-4.96-2.224-4.38-4.614 1.18-4.893 12.43-2.558 10.52 2.39-1.92 4.947-16.24.405-20.08-1.912-5.09-3.068 1.91-10.515-5.73-14.817-7.65-4.302-14.77 4.548-24.37 3.346-7.13-.893-9.87-8.431-16.92-10.994-5.74-2.085-8.27-.478-8.9 2.563-.96 4.607 10.99 6.997 10.99 1.876 0-4.71-13.86-5.872-21.36-1.093 8.94 1.093 25.67 9.845 32.83 7.648 15.58-4.78 11.95-4.876 8.61-9.56-3.35-4.684-12.22-11.741-20.08-13.946-9.14-4.216-26.68.14-29.63 4.601-3.65 5.504 8.27 3.132 6.69 10.474-1.19 5.519-17.18 17.437-32.5 13.602-16.92-4.235-16.67-17.558-26.54-14.54-16.92 5.175-5.72 56.438 4.15 56.438 9.87 0 9.4-38.687 21.15-65.974 11.75-27.287 8.07-62.051 32.97-66.756 24.91-4.705 29.14-.407 48.88 8.532 19.73 8.939 22.55-3.371 41.35-3.842 23.5 11.763 25.85 44.53 25.85 56.907 0 17.877 30.78 7.943 26.2 33.143-4.58 25.2-36.1 41.646-34.66 22.356 3.76-50.34 16.45-39.961 21.15-59.72 11.69-49.156-19.74-47.967-32.9-57.376-13.16-9.41-10.81-31.5-33.37-35.734-22.55-4.235-55.92-.418-74.25 11.814-18.32 12.233-32.89 36.693-37.12 51.748-4.23 15.055-27.38 14.566-30.63 38.928-2.82 21.171 3.52 51.844 17.96 65.036 30.76 28.105-17.02 36.251-11.38 42.367 5.64 6.116 32.04 44.669 65.4 58.783 33.37 14.114 38.54 45.774 34.31 46.244-4.23.471-11.28-26.083-23.5-24.201-12.22 1.882-3.29 25.119-12.22 26.06-8.92.941-34.77-34.558-59.21-67.02-24.43-32.462-49.63-39.683-82.4-33.658-41.79 7.683-100.44 80.762-131.44 116.047-140.73 160.147-299.29 150.853-431.33 9.56-130.96-150.531-238.98-331.201-692.09 60.73-288.95 249.938-435.9 93.681-550.62-70.29-100.67-143.905-280.33-264.874-640.468 45.436-303.985 261.924-462.67 137.653-556.351 43.972C289.69 330.431 152.037 290.282 1 404.994" stroke="currentColor"/>
<path d="M4556 322.784c-104.2-73.417-182.58-46.363-221.78-18.163-39.19 28.2-54.68 86.034-43.49 86.034 13.86 0 0-30.112-17.68-17.207-9.09 6.627-8.13 30.112 8.12 31.068 36.8 2.165 32.98-74.085 29.63-148.169-3.34-74.085-23.42-206.959 4.31-206.959 27.72 0 18.16 68.946-47.32 141.956-39.78 44.346 1.17 114.819 48.04 92.725 37.51-17.685 53.29-87.92 18.39-95.593-34.89-7.673-43.49 58.311-110.88 122.837-67.4 64.525-103.07 89.565-88.9 91.769 21.5 3.346 30.19-37.477-10.52-57.834-40.71-20.357-51.94-54.169-52.1-57.356 1.75 2.231 17.07 45.237 23.42 73.129 8.61 37.759 19.12 65.481-.48 83.166-10.36 9.352-29.15 1.519-29.15-13.861 0-18.163 35.85-37.281 31.07 0-4.78 37.281-86.52 108.02-187.84 88.548-56.82-7.104-143.08-73.015-181.74-119.759-28.39-34.329 21.68-87.877 41.75-24.545 9.19 28.988-46.42 65.793-61.56 84.243-13.35 16.26-26.81 63.324-26.81 75.556s-5.7 65.728 3.8 73.483c14.73 12.034 13.77 24.175 25.71 22.508 10.62-1.481 24.87-50.988 17.78-50.988-5.9 0-10.12 38.316.96 40.514 11.07 2.197 25.36-49.831 31-63.004 5.64-13.173-11.39-61.075.82-78.012 12.22-16.937 69.84-31.252 117.78-43.485 47.93-12.232 39.29-66.841 20.02-89.424-18.56-21.761-77.78-74.828-122.67-106.153-59.79-49.39-120.23-49.402-131.04-49.402-16.45 0-16.58 43.508-49.7 50.094 7.99 4.235 9.41 10.067 15.05 19.476 5.64 9.409-3.76 26.733-11.74 26.733 9.39-15.525-.48-16.439-4.23-8.911-8.46 12.232-31.02 23.342-34.78.759 26.32-23.523 34.71-39.596 19.72-46.481-22.09-10.143 9.42-5.468 8.01-16.29-.37-2.829-12.22-.123-25.38-5.298-12.22-2.822-29.98-30.192-10.81-26.354 21.15 4.235 30.58 7.976 47.03 9.122 5.17.36.44 7.114-3.32 7.799-5.55 1.009-31.49-4.498-42.3-7.697-7.05-2.086-22.13-7.75-22.13-17.197 0-14.931 30.34-25.444 29.68-23.54-3.16 9.089 6.84 13.325 11.25 13.637 3.27.231-1.98-7.073-5.81-7.894-6.69-1.434 11.47 15.295 17.57 15.885 22.58-4.414 18.76-12.539 15.95-21.659-2.81-9.12-8.72-33.814 17.82-36.287 8.41-.783 19.66-1.571 24.44 2.868 6.36 10.378-1.09 24.761-3.13 19.59-2.91-7.376-9.15-10.506-14.77-11.465-6.43-1.096-14.08 1.52-14.94 2.868 0 1.434 1.87.478 6.29.478 12.19 0 16.73 8.916 19.6 12.905-.82.956-10.04-2.727-15.22-3.989-3.41-.834-4.96-2.224-4.38-4.614 1.18-4.893 12.43-2.558 10.52 2.39-1.92 4.947-16.24.405-20.08-1.912-5.09-3.068 1.91-10.515-5.73-14.817-7.65-4.302-14.77 4.548-24.37 3.346-7.13-.893-9.87-8.431-16.92-10.994-5.74-2.085-8.27-.478-8.9 2.563-.96 4.607 10.99 6.997 10.99 1.876 0-4.71-13.86-5.872-21.36-1.093 8.94 1.093 25.67 9.845 32.83 7.648 15.58-4.78 11.95-9.655 8.61-14.339-3.35-4.684-12.22-11.741-20.08-13.946-9.14-4.217-26.68 4.919-29.63 9.38-3.65 5.504 8.27 3.132 6.69 10.474-1.19 5.519-17.18 17.437-32.5 13.602-16.92-4.235-16.67-17.558-26.54-14.54-16.92 5.175-.94 56.438 8.93 56.438s9.4-38.687 21.15-65.974c11.74-27.287 3.29-62.051 28.19-66.756 24.91-4.705 29.14-5.187 48.88 3.752 19.73 8.939 22.55 1.409 41.35.938 23.5 11.763 25.85 44.53 25.85 56.907 0 17.877 26 7.943 21.42 33.143-4.57 25.2-31.32 41.646-29.88 22.356 3.76-50.34 16.45-39.961 21.15-59.72 11.69-49.156-19.74-47.967-32.9-57.376-13.16-9.41-10.81-26.72-33.37-30.955-22.55-4.234-55.92-5.197-74.25 7.035-18.32 12.233-32.89 36.693-37.12 51.748-4.23 15.055-22.6 14.566-25.85 38.928-2.82 21.171-1.26 51.844 13.18 65.036 30.76 28.105-12.24 36.251-6.6 42.367 5.64 6.116 27.26 44.669 60.62 58.783 33.37 14.114 38.54 39.083 34.31 39.553-4.23.47-11.28-19.392-23.5-17.51-12.22 1.882-3.29 19.383-12.22 20.324-8.92.941-34.77-28.822-59.21-61.284-24.43-32.462-49.63-30.124-82.4-24.099-41.79 7.684-101.06 70.67-131.44 106.488-102.49 109.483-280.29 176.341-448.54 0-168.24-176.34-246.63-279.58-629 28.229-382.37 307.809-502.81 91.769-588.85-17.207-86.03-108.976-269.57-271.484-634.735 30.59C587.94 678.389 471.317 513.97 389.107 429.848c-82.21-84.122-216.04-172.067-384.283-32.502" stroke="currentColor"/>
<path d="M4556 322.784c-104.2-73.417-182.58-41.583-221.78-13.383-39.19 28.2-54.68 86.033-43.49 86.033 13.86 0 0-30.111-17.68-17.206-9.09 6.627-8.13 39.671 8.12 40.627 36.8 2.165 32.98-83.644 29.63-157.729-3.34-74.084-23.42-226.077 4.31-226.077 27.72 0 18.16 88.065-47.32 161.074-39.78 44.346 10.73 114.82 57.6 92.725 37.51-17.684 53.29-87.919 18.39-95.593-34.89-7.673-53.05 58.312-120.44 122.837-67.4 64.525-103.07 99.125-88.9 101.329 21.5 3.345 30.19-47.036-10.52-67.393s-51.94-54.17-52.1-57.356c1.75 2.231 17.07 45.237 23.42 73.129 8.61 37.759 19.12 65.481-.48 83.165-10.36 9.353-29.15 1.52-29.15-13.861 0-18.162 35.85-37.281 31.07 0-4.78 37.282-86.52 108.02-187.84 88.549-56.82-7.104-143.08-73.016-181.74-119.759-28.39-34.329 31.23-87.877 51.31-24.545 9.19 28.988-65.54 65.793-80.68 84.243-13.35 16.259-17.25 63.324-17.25 75.556s-5.7 65.728 3.8 73.483c14.73 12.033 13.77 24.174 25.71 22.508 10.62-1.482 24.87-50.989 17.78-50.989-5.9 0-10.12 47.876.96 50.073 11.08 2.198 25.36-59.389 31-72.563 5.64-13.173-11.39-51.515.82-68.452 12.22-16.937 69.85-40.812 117.78-53.044 47.93-12.232 39.29-66.841 20.02-89.425-18.56-21.76-77.78-74.827-122.67-106.152-59.79-49.39-120.23-39.843-131.04-39.843-16.45 0-16.58 33.949-49.7 40.535 7.99 4.235 6.91 12.123 15.05 19.475 10.42 9.409-3.76 26.734-11.74 26.734 9.39-15.526-.48-16.439-4.23-8.911-8.46 12.232-31.02 23.342-34.78.759 26.32-23.523 34.71-39.596 19.72-46.481-22.09-10.143 9.42-5.469 8.01-16.29-.37-2.829-12.22-.124-25.38-5.298-12.22-2.823-29.98-33.06-10.81-29.222 21.15 4.235 30.58 10.844 47.03 11.989 5.17.36.44 7.115-3.32 7.799-5.55 1.01-31.49-4.497-42.3-7.696-7.05-2.087-26.91-7.75-26.91-17.197 0-14.931 35.12-25.444 34.46-23.54-3.16 9.088 6.84 13.325 11.25 13.637 3.27.231-1.98-7.073-5.81-7.894-6.69-1.434 11.47 15.295 17.57 15.885 22.58-4.414 18.76-12.54 15.95-21.659-2.81-9.12-8.72-38.594 17.82-41.067 8.41-.783 19.66-1.571 24.44 2.868 6.36 10.378-1.09 29.541-3.13 24.369-2.91-7.376-9.15-13.373-14.77-14.332-6.42-1.096-14.08 4.387-14.94 5.736 0 1.434 1.87.478 6.29.478 12.19 0 16.73 8.915 19.6 12.905-.82.956-10.04-2.728-15.22-3.99-3.41-.833-4.96-2.224-4.38-4.614 1.18-4.893 12.43-2.557 10.52 2.39-1.92 4.948-16.24.406-20.08-1.912-5.09-3.067 1.91-10.515-5.73-14.816-7.65-4.302-14.77 4.548-24.37 3.345-7.13-.892-9.87-8.43-16.92-10.993-5.74-2.086-8.27-.478-8.9 2.563-.96 4.607 10.99 6.996 10.99 1.876 0-4.71-13.86-5.873-21.36-1.093 8.94 1.093 25.67 9.845 32.83 7.647 15.58-4.779 11.95-9.655 8.61-14.339-3.35-4.684-12.22-11.741-20.08-13.946-9.14-4.216-26.68 4.919-29.63 9.38-3.65 5.504 8.27 3.132 6.69 10.475-1.19 5.519-17.18 17.437-32.5 13.601-16.92-4.234-16.67-17.558-26.54-14.539-16.92 5.175-.94 56.438 8.93 56.438s9.4-38.687 21.15-65.975c11.75-27.287 3.29-66.83 28.19-71.535 24.91-4.705 29.14-.407 48.88 8.532 19.73 8.939 22.55 1.408 41.35.938 23.5 11.762 25.85 44.53 25.85 56.906 0 17.878 26 7.944 21.42 33.144-4.57 25.2-31.32 41.646-29.88 22.356 3.76-50.34 21.23-39.961 25.93-59.721 11.69-49.155-24.52-47.966-37.68-57.375-13.16-9.41-10.81-26.72-33.37-30.955-22.55-4.234-55.92.538-74.25 12.77-18.32 12.233-32.89 30.958-37.12 46.013-4.23 15.055-22.6 14.566-25.85 38.927-2.82 21.171-1.26 51.845 13.18 65.037 30.76 28.104-12.24 36.251-6.6 42.367 5.64 6.116 27.26 39.889 60.62 54.003 33.37 14.114 38.54 43.862 34.31 44.333-4.23.47-11.28-19.392-23.5-17.51-12.22 1.882-3.29 19.383-12.22 20.324-8.92.941-34.77-28.822-59.21-61.284-24.43-32.463-49.62-30.124-82.4-24.099-41.79 7.683-101.05 70.669-131.44 106.488-115.87 124.777-260.22 209.855-444.71 0-167.2-190.183-265.4-298.714-614.66 9.11-338.4 298.25-472.66 184.964-598.42 7.647-132.87-187.362-295.38-297.293-654.806 32.502-355.174 325.891-502.421 109.831-566.866 28.678-77.43-97.505-222.731-151.037-371.856 0" stroke="currentColor"/>
</svg>
