<svg width="4368" height="1901" viewBox="0 0 4368 1901" fill="none" xmlns="http://www.w3.org/2000/svg">
<path d="M3728.51 783.482C3705.4 790.955 3711.17 818.169 3728.45 822.508C3745.72 826.847 3767.88 830.492 3782.6 833.332C3797.31 836.171 3797.98 834.892 3801.01 831.434C3939.44 875.471 4302.46 999.328 4361.29 1016.63C4365.86 1017.97 4367.19 1011.91 4363.26 1010.09C4305.24 990.298 3969.92 877.438 3805.7 817.997C3806.94 812.878 3808.16 809.838 3789.97 801.946C3770.3 793.413 3751.62 784.072 3735.4 781.613C3731.4 779.155 3719.17 773.421 3711.8 772.588C3700.49 771.311 3690.65 775.538 3682.92 787.387C3676.3 797.523 3680.86 824.216 3692.13 828.484C3703.4 832.751 3717.35 832.931 3724.87 832.398C3747.74 821.684 3768.96 821.7 3773.12 836.171C3777.29 850.643 3725.18 862.967 3702.69 875.424C3679.23 888.509 3650.48 897.679 3630.73 936.231C3607.07 982.4 3574.66 1000.44 3547.1 994.232C3529.25 990.207 3491.58 930.662 3495.93 909.993C3504.04 871.525 3541.7 771.288 3562.11 759.277C3582.51 747.266 3651.41 735.921 3678.21 734.615C3705.02 733.309 3722.68 737.367 3739.22 743.177C3760.96 759.277 3785.22 781.114 3788.23 795.282C3773.5 808.283 3747.23 785.543 3735.33 777.122C3721.63 767.424 3691.91 764.536 3678.32 767.424C3636.14 774.556 3554.67 821.015 3548.17 801.725C3534.88 762.318 3597.97 729.809 3619.38 709.816C3662.28 685.347 3730.97 643.333 3741.01 649.427C3756.44 683.446 3677.71 711.686 3640.4 747.034C3590.83 825.022 3562.11 855.945 3549.78 834.126C3539.2 815.391 3577.01 792.574 3615.3 741.936C3660.59 682.036 3663.54 686.646 3674.22 687.88C3699.55 690.802 3622.6 784.837 3618.3 805.07C3613.04 829.811 3630.32 846.414 3629.69 879.455C3628.93 918.784 3590.14 1010.09 3519.23 1036.07C3474.3 1052.52 3338.79 1095.92 3336.82 1122.66C3334.85 1149.41 3339.46 1224.35 3364.03 1226.81C3388.6 1229.27 3493.73 1196.66 3533.19 1181.7C3572.65 1166.73 3561.32 1141.98 3530.12 1061.95C3498.91 981.927 3457.85 913.347 3432.37 922.051C3411.98 929.013 3369.05 965.006 3315.54 982.4C3129.76 1042.79 2997.3 1022.93 2847.3 879.757C2717.76 739.502 2569.71 692.132 2230.76 922.613C1891.81 1153.09 1720.39 1067.74 1599.61 854.433C1497.12 673.427 1294.75 542.754 925.604 854.433C554.842 1167.48 451.215 1032.74 348.997 940.145C266.207 865.147 170.756 810.604 4.20087 899.237" stroke="currentColor"/>
<path d="M3728.51 783.482C3705.4 790.955 3711.17 818.168 3728.45 822.508C3745.72 826.847 3767.88 830.492 3782.59 833.331C3797.31 836.171 3797.98 834.892 3801.01 831.433C3939.44 875.471 4302.46 999.328 4361.29 1016.63C4365.86 1017.97 4367.19 1008.99 4363.26 1007.17C4305.24 987.376 3969.92 877.438 3805.7 817.996C3806.94 812.878 3808.16 809.838 3789.97 801.945C3770.3 793.413 3751.62 784.071 3735.39 781.612C3731.4 779.154 3719.17 773.42 3711.79 772.588C3700.49 771.31 3690.65 775.538 3682.92 787.386C3676.3 797.522 3680.86 824.216 3692.13 828.483C3703.4 832.751 3717.35 832.931 3724.87 832.398C3747.74 821.684 3768.96 821.699 3773.12 836.171C3777.29 850.642 3725.18 862.967 3702.69 875.424C3679.23 888.508 3650.48 897.678 3630.73 936.23C3607.07 982.4 3574.65 1000.44 3547.1 994.231C3529.25 990.207 3491.58 930.662 3495.93 909.992C3504.04 871.524 3541.7 771.288 3562.11 759.277C3582.51 747.265 3651.41 735.921 3678.21 734.615C3705.02 733.309 3722.68 737.367 3739.22 743.177C3760.96 759.277 3785.22 781.113 3788.23 795.282C3773.5 808.283 3747.23 785.543 3735.33 777.122C3721.63 767.424 3691.91 764.536 3678.31 767.424C3636.14 774.556 3554.67 821.015 3548.17 801.725C3534.88 762.318 3597.97 729.809 3619.38 709.816C3662.28 685.347 3730.97 643.333 3741.01 649.426C3756.43 683.445 3677.71 711.686 3640.4 747.034C3590.83 825.022 3562.11 855.944 3549.78 834.126C3539.2 815.39 3577.01 792.573 3615.3 741.936C3660.59 682.035 3667.43 684.698 3678.12 685.931C3703.44 688.853 3624.55 784.836 3620.25 805.069C3614.99 829.811 3640.12 846.413 3639.48 879.455C3638.73 918.784 3590.14 1019.83 3519.23 1045.81C3474.3 1062.26 3338.79 1095.92 3336.82 1122.66C3334.85 1149.41 3339.46 1224.35 3364.03 1226.81C3388.6 1229.27 3498.6 1197.28 3538.06 1182.31C3577.51 1167.35 3561.32 1141.98 3530.11 1061.95C3498.9 981.927 3457.85 908.477 3432.36 917.18C3411.98 924.143 3369.05 965.006 3315.54 982.4C3129.79 1043.9 3000.22 994.231 2848.27 889.497C2709.97 787.386 2587.24 692.131 2248.29 922.613C1909.34 1153.09 1714.54 1027.8 1599.61 854.433C1484.68 681.061 1295.72 552.494 915.863 854.433C536.004 1156.37 446.397 1004.43 348.997 940.145C251.597 875.861 179.521 844.693 13.9417 881.705" stroke="currentColor"/>
<path d="M3728.51 780.819C3705.4 788.292 3711.17 814.532 3728.45 818.871C3745.72 823.21 3767.88 826.855 3782.59 829.695C3797.31 832.535 3797.98 831.256 3801.01 827.797C3939.44 871.834 4302.46 994.718 4361.29 1012.02C4365.86 1013.36 4367.19 1006.33 4363.26 1004.51C4305.24 984.714 3969.92 881.593 3805.7 822.152C3806.94 817.034 3808.16 813.994 3789.97 806.101C3770.3 797.569 3751.62 784.331 3735.4 781.872C3731.4 779.414 3719.17 773.68 3711.8 772.847C3700.49 771.57 3685.78 775.797 3678.05 787.646C3671.43 797.782 3675.99 827.397 3687.26 831.665C3698.53 835.933 3717.35 833.191 3724.87 832.657C3747.74 821.944 3768.96 821.959 3773.12 836.431C3777.29 850.902 3725.18 858.356 3702.69 870.814C3679.23 883.898 3650.48 897.938 3630.73 936.49C3607.07 982.66 3574.65 1000.7 3547.1 994.491C3529.25 990.466 3501.32 930.921 3505.67 910.252C3513.78 871.784 3541.7 771.548 3562.11 759.536C3582.51 747.525 3651.41 739.103 3678.21 737.796C3705.02 736.49 3725.6 734.705 3742.14 740.515C3763.88 756.614 3785.22 781.373 3788.23 795.541C3773.5 808.542 3747.23 785.803 3735.33 777.381C3721.63 767.684 3691.91 764.795 3678.31 767.684C3636.14 774.815 3559.54 821.275 3553.04 801.985C3539.75 762.577 3597.97 730.068 3619.38 710.076C3662.28 685.607 3736.81 643.593 3746.85 649.686C3762.28 683.705 3677.71 711.945 3640.4 747.293C3590.83 825.281 3562.11 847.438 3549.78 825.62C3539.2 806.884 3583.23 783.607 3622.11 733.43C3656.85 688.611 3665.46 684.258 3678.21 686.191C3706.85 691.548 3622.78 790.416 3620.25 806.303C3616.26 831.281 3635.25 846.673 3634.61 879.715C3633.86 919.043 3590.14 1010.35 3519.23 1036.33C3474.3 1052.78 3348.53 1096.18 3346.56 1122.92C3344.59 1149.67 3339.46 1224.61 3364.03 1227.07C3388.6 1229.53 3493.73 1206.3 3533.19 1191.34C3572.64 1176.38 3561.32 1142.24 3530.11 1062.21C3498.9 982.187 3457.85 903.867 3432.36 912.57C3411.98 919.532 3361.57 960.859 3305.8 985.209C3137.55 1043.65 3019.7 1031.92 2910.61 946.23C2801.52 860.537 2669.06 616.999 2211.28 936.49C1753.5 1255.98 1629.78 909.237 1576.23 813.785C1531.43 733.918 1311.31 478.73 935.343 846.901C559.38 1215.07 401.17 1005.09 345.101 936.49C271.077 845.927 158.094 813.785 10.0458 911.185" stroke="currentColor"/>
</svg>
