<svg fill="none" xmlns="http://www.w3.org/2000/svg" viewBox="0 0 4079 540">
<path d="M3831.63 242.911c18.69-9.342 164.22-90.468 170.12-90.468 5.9 0 8.85 19.667 8.85 19.667 5.41 0 19.01-7.689 38.35-16.716 29.5-13.767 29.92-18.684 18.68-34.418-12.29-17.208-62.44 22.618-59.98 11.801 2.96-13.042 51.63-24.138 37.37-9.834-5.56 5.572-51.14 27.534-51.14 30.484 0 2.95.99 13.275 8.85 17.7-.98 3.933-167.16 81.617-167.16 81.617-7.59 1.475-16.23 1.475-19.52 1.475-.06-14.097-4.08-31.958-12.85-56.542 1.88 0 8.77-2.95 12.04-2.95 3.61 11.8 12.95 45.234 12.95 56.542 0 6.56-3.93 20.159-13.77 23.6 5.9 5.409 8.85-1.967 26.55-1.967 23.11 0 30 29.5 33.93 56.542l-10.82 2.459c-4.42-15.734-7.86-49.515-26.06-45.725-13.76 2.868-2.95 29.5.99 50.642-1.15 1.311-6.39 2.95-10.82 2.95-2.46-10.326-5.9-50.642-23.11-46.709-17.43 3.984-6.39 32.45-2.95 51.625 1.97.82-5.41 2.459-9.83 2.459-8.36-39.334-14.75-49.167-27.53-46.217-12.79 2.95-5.9 31.466 0 53.1l-11.8 2.95c-6.4-19.175-19.67-56.05 2.95-66.867 15.26-7.299 32.94 1.966 29.99-7.867-21.14 0-23.85-43.266-35.89-72.767-28.52-69.817-121.94-55.067-121.94 7.867 0 131.039 41.79 276.81 109.64 317.127 74.74 2.95 283.7-77.193 302.38-129.309-30.48 0-76.96-35.4-97.35-74.734-45.65-88.035-54.58-264.518-62.93-270.419-7.23-5.103-53.9-.983-63.92-.983-10.02 0-22.13-31.467 1.97-31.467 24.09 0 32.45 52.117 5.9 57.034-18.38 3.402-14.75-25.567-21.64-25.567-6.88 0-64.9 4.917-69.82 4.917-4.91 0-23.6-27.927-.98-32.45 31.47-6.294 35.4 55.067 14.75 59.492-20.65 4.425-25.57-18.192-28.02-27.534-7.87 0-60.48 4.425-72.28 4.425-11.8 0-24.61-29.384 1.97-32.45 25.56-2.95 33.92 53.403 14.26 60.967-19.67 7.564-32.95-12.784-32.95-28.517-18.35.656-47.2 3.933-82.6 36.384-83.44 76.486-114.06 294.019-267.46 297.46-153.41 3.442-189.34-74.772-369.74-255.176-192.73-192.735-363.84-230.102-645.07 107.675-264.58 317.778-392.7 358.517-550.67 175.526-198.64-230.101-216.43 0-379.57-196.667-143.57-173.068-295-183.615-619.504 112.1C470.577 567.413 230.643 659.847 10.374 95.41" stroke="currentColor"/>
<path d="M3836.55 239.961c18.68-9.342 164.22-87.518 170.12-87.518 5.9 0 6.88 19.667 6.88 19.667 5.41 0 16.06-7.689 35.4-16.716 29.5-13.767 34.84-18.684 23.6-34.418-12.29-17.208-73.26 22.618-70.8 11.801 2.96-13.042 57.53-24.138 43.27-9.834-5.56 5.572-51.14 27.534-51.14 30.484 0 2.95 3.94 13.275 11.8 17.7-.98 3.933-170.11 81.617-170.11 81.617-7.59 1.475-16.23 1.475-19.52 1.475-.06-14.097-7.03-33.925-15.8-58.508 1.88 0 8.77-2.95 12.04-2.95 3.61 11.8 15.9 47.2 15.9 58.508 0 6.56-3.93 20.159-13.77 23.6 5.9 5.409 8.85-1.967 26.55-1.967 23.11 0 30 31.467 33.93 58.509l-10.82 2.458c-4.42-15.733-7.86-51.481-26.06-47.691-13.76 2.868-2.95 31.466.99 52.608-1.15 1.312-6.39 2.95-10.82 2.95-2.46-10.325-5.9-52.608-23.11-48.675-17.43 3.984-6.39 32.45-2.95 51.626 1.97.819-5.41 2.458-9.83 2.458-8.36-39.334-14.75-49.167-27.54-46.217-12.78 2.95-5.9 31.466 0 53.1l-11.8 2.95c-6.39-19.175-19.66-56.05 2.95-66.867 15.27-7.299 37.86 1.966 34.91-7.867-21.14 0-28.76-43.267-40.81-72.767-28.51-69.817-117.01-64.9-117.01-1.966 0 131.038 36.87 286.643 104.72 326.96 74.74 2.95 299.43-82.109 318.11-134.226-30.48 0-92.69-30.483-113.08-69.817-45.65-88.035-54.58-269.435-62.93-275.335-7.23-5.104-53.9.983-63.92.983-10.02 0-22.13-35.4 1.97-35.4 24.09 0 32.45 61.95 5.9 66.867-18.38 3.402-14.75-33.434-21.64-33.434-6.88 0-64.9 4.917-69.82 4.917-4.91 0-23.6-27.927-.98-32.45 31.47-6.293 35.4 59.984 14.75 64.409-20.65 4.425-25.57-22.125-28.02-31.467-7.87 0-60.48 3.441-72.28 3.441-11.8 0-24.61-24.467 1.97-27.533 25.56-2.95 33.92 57.336 14.26 64.9-19.67 7.564-32.95-19.667-32.95-35.4-18.35.656-47.2 6.883-82.6 39.334-83.44 76.486-90.46 255.766-282.22 272.385-146.51 12.698-250.75-141.601-394.31-263.535-163.11-138.53-357.94-121.934-700.14 234.035-241.52 251.234-336.3 149.468-448.4 66.867-224.21-165.201-186.84 31.467-373.67-165.201C1163.57 54.97 952.414 138.677 659.379 384.512 366.343 630.347 150.009 469.079 20.208 124.91" stroke="currentColor"/><path d="M3831.63 244.877c18.69-9.341 164.22-92.434 170.12-92.434 5.9 0 8.85 23.601 8.85 23.601 5.41 0 19.01-7.69 38.35-16.717 29.5-13.767 29.92-18.683 18.68-34.418-12.29-17.207-62.44 18.685-59.98 7.868 2.96-13.042 51.63-20.205 37.37-5.9-5.56 5.571-51.14 23.6-51.14 26.55 0 2.95.99 13.275 8.85 17.7-.98 3.933-167.16 83.584-167.16 83.584-7.59 1.475-18.2-.492-21.49-.492-.06-14.097-3.1-33.925-11.86-58.508 1.88 0 8.76-2.95 12.03-2.95 3.62 11.8 13.94 49.166 13.94 60.475 0 6.56-3.93 14.258-13.77 17.7 5.9 5.408 8.85 1.966 26.55 1.966 23.11 0 30 26.551 33.93 53.592l-10.82 2.459c-4.42-15.734-7.86-50.499-26.06-46.709-13.76 2.868-2.95 30.484.99 51.626-1.15 1.311-6.39 2.95-10.82 2.95-2.46-10.326-5.9-51.626-23.11-47.692-17.43 3.984-6.39 33.433-2.95 52.608 1.97.82-5.41 2.459-9.83 2.459-8.36-39.334-14.75-51.134-27.53-48.184-12.79 2.95-5.91 32.45 0 54.084l-11.81 3.933c-6.39-19.175-19.66-56.05 2.95-66.867 15.27-7.299 32.95 4.916 30-4.917-21.14 0-18.93-43.267-30.98-72.767-28.52-69.817-117.02-55.067-117.02 7.867 0 131.039 31.96 276.81 99.81 317.127 74.74 2.95 293.53-77.193 312.21-129.309-30.48 0-86.79-35.4-107.18-74.734-45.65-88.035-44.74-264.518-53.1-270.419-7.23-5.103-63.73-.983-73.75-.983-10.02 0-22.13-36.383 1.97-36.383 24.09 0 32.45 53.1 5.9 58.016-18.38 3.402-14.75-21.633-21.64-21.633-6.88 0-64.9 4.917-69.82 4.917-4.91 0-18.68-27.927 3.94-32.45 31.47-6.294 30.48 59 9.83 63.425-20.65 4.425-25.57-22.125-28.02-31.467-7.87 0-60.48 4.425-72.28 4.425-11.8 0-19.69-31.35 6.88-34.417 25.57-2.95 29.01 65.203 9.35 72.767-19.67 7.564-32.95-22.617-32.95-38.35-18.35.656-57.03 3.933-92.43 36.384-83.44 76.486-71.44 249.479-260.09 287.627-131.31 26.55-239.45-125.376-404.65-259.11s-369.73-173.068-647.03 163.234c-248.65 301.545-391.37 238.46-542.81 109.151-200.66-171.342-165.2 16.717-342.2-160.284C1180.7 85.733 1069.8 63.943 724.279 328.953 405.677 573.313 201.142 565.446.541 114.093" stroke="currentColor"/>
</svg>
