<svg fill="none" xmlns="http://www.w3.org/2000/svg" viewBox="0 0 4311 571">
<path d="M3645.54 345.365c15.88-1.476 36.08-18.083 41.53-22.349 5.45-4.266 1.76-12.511-12.88-13.518-13.83-.952-19.02 9.369-10.09 14.61 8.58 5.038 12.45 3.611 31.64.084 23.72-4.361 41.39 4.729 41.39 12.931 0 5.541-11.61 8.061-20.7 4.534-8.95-3.474-12.11-11.035-6.05-12.595 6.05-1.56 17.23 0 34.32 17.633 8.99 9.274 36.86 17.129 36.86 6.549 0-6.231-5.18-9.899-13.63-11.587-12.62-2.519-20.62 1.794-14.14 7.053 8.08 6.55 29.78.843 50.99 6.55 20.75 5.586 31.8 9.068 30.79 13.602-1.01 4.535-8.08 5.542-19.18 4.031-13.01-1.77-19.19-10.076-10.6-13.099 8.58-3.023 19.18-.717 46.94 17.129 14.71 9.454 32.31 11.084 36.35 8.565 3.03-1.888 4.04-8.061-9.09-11.084-13.12-3.023-28.24 1.854-22.71 9.068 6.56 8.565 25.28 6.831 51.49 8.565 19.68 1.302 31.29 4.534 33.82 9.068 3.14 5.64-5.05 9.573-16.66 5.542-16.55-5.745-20.19-13.602-12.12-17.129 6.93-3.023 25.67.69 38.87 16.625 19.83 23.928 47.13 22.355 49.48 13.184 2.02-7.888-16.16-14.107-27.26-12.092-11.11 2.016-7.38 15.113 6.05 18.641 19.19 5.038 35.34-6.704 51.5-4.534 26.25 3.526 29.78 16.625 20.19 21.159-9.59 4.534-30.8-4.03-30.8-10.579 0-6.067 13.26-9.069 28.78 0 20.7 12.091-13.28 36.693-20.85 50.799-11.11 17.129-38.87 5.542-40.89-1.007-1.34-4.334.5-9.573 10.6-9.573 17.16 0 23.73 9.069 18.68 14.107-5.05 5.038-19.69-3.527-29.79-14.107-10.09-10.579-53.51-18.136-54.01-6.549-.51 11.587 27.76 13.099 32.81 9.068 5.05-4.03.51-13.602-12.62-17.633-15.14-5.038-31.3-1.007-45.43 3.527-14.14 4.534-35.34-6.046-29.79-17.129 6.57-13.099 37.36 6.045 28.78 12.595-11.88 9.068-27.06-14.885-44.42-21.664-13.1-5.114-34.15-8.564-36.35-2.519-3.49 9.573 27.61 16.987 29.79 5.038 2.75-15.114-20.7-12.091-46.45-12.091-18.68 0-34.01-2.598-35.33-8.564-1.33-5.966 8.07-8.85 21.7-3.527 11.61 4.534 10.1 15.114-2.02 15.114-12.11 0-19.18-6.046-28.27-15.114-9.59-9.253-44.92-19.921-44.92-9.069 0 9.573 27.76 13.099 31.29 7.054 3.38-5.783-3.02-14.107-15.14-14.611-12.12-.503-11.4 1.301-22.72 3.023-29.78 4.535-48.96-11.083-37.35-16.625 14.08-6.722 28.7 4.215 26.75 9.572-2.02 5.542-15.65.229-31.8-8.565-22.21-12.091-47.34-10.983-45.43-6.045 2.52 6.549 25.24 9.572 29.27 2.519 4.04-7.053-12.62-13.603-27.76-8.565-11.76 3.911-32.62 26.872-39.46 36.948-10.6 15.618-.51 33.251 21.2 40.304 21.71 7.053 268.14 103.274 333.77 118.388 65.62 15.114 107.91-35.77 149.27-66.667 40.06-29.932 32.15-36.108 40.23-130.823 6.46-75.735 4.19-92.534-61.43-110.671-82.29-22.74-308.27-91.959-345.12-81.025-27.26 8.088-50.57 60.713-33.58 81.025 17 20.313 313.27 99.85 369.7 110.167 42.02 7.685 42.42-26.447 74.3-29.643 18.1-1.815 39.88 4.666 79.19 8.511 54.69 5.35 52.84-70.997 52.84-83.592 0-24.182-23.22-32.243-32.3-5.038-16.31 48.825-6.28 79.601 26.03 77.585 32.31-2.015 42.84-105.23 18.8-126.027-11.36-9.819-41.14-16.598-92.36-28.28-61.26-13.97-365.6-63.226-375.66-82.375-10.07-19.15 28.58-67.371 58.36-88.609 12.56-8.95 384.38 50.025 351.12 50.025-32.33 39.704-27.66 107.475-69.56 98.411-110.05-23.804-372.73-75.444-408.19-80.726-31.53-4.696-46.83-.087-54.9 33.163-8.08 33.251-6.57 41.143 6.05 41.143 13.13 0 17.92-20.487 19.94-36.105 1.23-9.48-3.56-27.806-19.21-30.645-35.34-6.412-49.63 7.053-57.7 9.068-8.08 2.015-68.76-6.383-90.98-2.352-22.21 4.03-35.33 55.165-37.35 63.226-2.02 8.061-7.07 26.952 12.11 23.929 19.19-3.022 19.19-53.402 32.31-62.471 13.13-9.068 83.82 1.847 94.48 18.049 16.91 25.714.46 59.758-19.9 86.574-28.04 36.936-80.24 66.481-164.31 43.398-84.08-23.083-159.83-152.353-296.57-120.188-85.87 22.123-165.96 103.655-245.08 177.95-179.46 148.133-299.11 135.083-509.45-77.19-210.34-212.272-401.39-264.375-532.61-59.822-131.22 204.553-216.13 77.19-245.08 40.525-28.94-36.665-106.13-35.701-250.86 145.696-163.67 205.133-389.814 37.245-509.458-147.626C745.836 22.1 587.684-77.765 373.482 144.156 202.12 321.693 94.054 382.544 65.107 389.62" stroke="currentColor"/>
<path d="M3645.54 346.33c18.56-4.673 36.08-19.048 41.53-23.314 5.45-4.266 1.76-12.511-12.88-13.518-13.83-.952-19.02 9.369-10.09 14.61 8.58 5.038 12.45 3.611 31.64.084 23.72-4.361 41.39 4.729 41.39 12.931 0 5.541-11.61 8.061-20.69 4.534-8.96-3.474-12.12-11.035-6.06-12.595 6.06-1.56 17.23 0 34.32 17.633 9 9.274 36.86 17.129 36.86 6.549 0-6.231-5.17-9.899-13.63-11.587-12.62-2.519-20.62 1.794-14.14 7.053 8.08 6.55 29.78.843 50.99 6.55 20.75 5.586 31.8 9.068 30.79 13.602-1.01 4.535-8.08 5.542-19.18 4.031-13.01-1.77-19.19-10.076-10.6-13.099 8.58-3.023 19.18-.717 46.94 17.129 14.71 9.454 32.31 11.084 36.35 8.565 3.03-1.888 4.04-8.061-9.09-11.084-13.12-3.023-28.24 1.854-22.71 9.068 6.56 8.565 25.28 6.831 51.49 8.565 19.68 1.302 31.29 4.534 33.82 9.068 3.14 5.64-5.05 9.573-16.66 5.542-16.55-5.745-20.19-13.602-12.12-17.129 6.93-3.023 25.67.69 38.87 16.625 19.83 23.928 47.13 22.355 49.48 13.184 2.02-7.888-16.16-14.107-27.26-12.092-11.11 2.016-7.38 15.113 6.05 18.641 19.19 5.038 35.34-6.704 51.5-4.534 26.25 3.526 29.78 16.625 20.19 21.159-9.59 4.535-30.8-4.03-30.8-10.579 0-6.067 13.26-9.069 28.78 0 20.7 12.091-13.28 36.693-20.85 50.799-11.11 17.129-38.87 5.542-40.89-1.007-1.34-4.334.5-9.573 10.6-9.573 17.16 0 23.73 9.069 18.68 14.107-5.05 5.038-19.69-3.527-29.79-14.107-10.09-10.579-53.51-18.136-54.01-6.549-.51 11.587 27.76 13.099 32.81 9.068 5.05-4.03.51-13.602-12.62-17.633-15.14-5.038-31.3-1.007-45.43 3.527-14.14 4.534-35.34-6.046-29.79-17.129 6.57-13.099 37.36 6.045 28.78 12.595-11.88 9.068-27.06-14.885-44.42-21.664-13.1-5.114-34.15-8.564-36.35-2.519-3.49 9.573 27.61 16.987 29.79 5.038 2.75-15.114-20.7-12.091-46.45-12.091-18.67 0-34.01-2.598-35.33-8.564-1.33-5.966 8.07-8.85 21.7-3.527 11.61 4.534 10.1 15.114-2.02 15.114-12.11 0-19.18-6.046-28.27-15.114-9.59-9.253-44.92-19.921-44.92-9.069 0 9.573 27.76 13.099 31.29 7.054 3.38-5.783-3.02-14.107-15.14-14.611-12.12-.503-11.4 1.301-22.72 3.023-29.78 4.535-48.96-11.083-37.35-16.625 14.08-6.722 28.7 4.215 26.75 9.572-2.02 5.542-15.65.229-31.8-8.565-22.21-12.091-47.34-10.983-45.43-6.045 2.52 6.549 25.24 9.572 29.27 2.519 4.04-7.053-12.62-13.603-27.76-8.565-11.76 3.911-32.62 36.269-39.46 46.345-10.6 15.617-.51 33.25 21.2 40.304 21.71 7.053 268.14 93.877 333.77 108.991 65.62 15.114 111.67-35.77 153.03-66.667 40.06-29.932 34.03-36.108 42.11-130.823 6.46-75.735 17.35-92.534-48.28-110.671-82.28-22.74-327.06-101.355-363.91-90.421-27.26 8.088-50.57 70.109-33.58 90.421 17 20.313 313.27 99.85 369.7 110.167 42.02 7.685 42.42-26.447 74.3-29.643 18.1-1.815 39.88 4.666 79.19 8.511 54.69 5.35 48.15-80.394 48.15-92.989 0-24.182-23.23-32.243-32.31-5.038-16.31 48.826-1.58 98.394 30.73 96.379 32.31-2.015 61.64-116.506 37.59-137.303-11.35-9.819-50.53-16.598-101.76-28.28-61.25-13.97-374.99-61.347-385.05-80.496-10.07-19.15 18.93-67.371 48.72-88.609 12.55-8.95 384.38 50.025 351.12 50.025-32.34 39.704 10.17 102.776-31.73 93.713-110.05-23.804-400.92-75.444-436.38-80.726-31.53-4.697-43.93 4.61-52.01 37.861-8.08 33.251-4.76 44.801 7.86 44.801 13.13 0 21.87-28.789 21.87-44.537 0-19.155-10.19-32.428-25.84-35.268-35.34-6.412-49.63 16.45-57.7 18.465-8.08 2.015-68.76-6.383-90.98-2.352-22.21 4.03-35.33 64.561-37.35 72.622-2.02 8.061-7.07 36.35 12.11 33.327 19.19-3.023 19.19-62.8 32.31-71.868 13.13-9.069 93.22 1.847 103.87 18.049 16.92 25.714.47 50.361-19.89 77.177-28.05 36.936-89.64 75.878-173.71 52.794-84.08-23.083-108.42-167.283-289.1-145.734-122.29 18.493-196.58 120.287-241.93 169.496-149.56 158.626-283.71 210.562-487.26-18.815-208.42-234.85-411.05-339.992-540.33-132.188-104.21 167.503-172.99 199.904-238.33 128.328-64.64-70.821-95.52-106.136-268.23 82.015-172.71 188.15-388.85 54.033-531.647-137.012C727.011 30.686 576.491-79.309 310.186 210.153 97.141 441.723 15.577 431.431 1.426 397.339" stroke="currentColor"/>
<path d="M3647.49 344.501c14.68-4.09 34.13-20.978 39.58-25.244 5.45-4.266 1.76-12.511-12.88-13.518-13.83-.952-19.02 9.369-10.09 14.61 8.58 5.038 12.45 3.611 31.64.084 23.72-4.361 41.39 4.73 41.39 12.931 0 5.542-11.61 8.061-20.69 4.534-8.96-3.474-12.12-11.035-6.06-12.595 6.06-1.56 17.23 0 34.32 17.633 9 9.274 36.86 20.888 36.86 10.308 0-6.231-5.17-13.658-13.63-15.346-12.62-2.519-20.62 2.734-14.14 7.993 8.08 6.549 30.72.843 51.93 6.55 26.82 7.219 32.74 13.766 32.67 18.301-.07 4.534-10.9 5.541-22 4.03-13.01-1.77-19.19-10.076-10.6-13.099 8.58-3.023 16.17 5.211 46.94 17.129 14.71 5.695 32.31 7.325 36.35 4.806 3.03-1.888 4.04-8.061-9.09-11.083-13.12-3.023-32 5.612-26.47 12.827 6.56 8.564 27.53 7.625 54.31 7.625 17.16 0 32.23 5.473 34.76 10.008 3.14 5.639-5.05 9.572-16.66 5.541-16.55-5.745-20.19-13.602-12.12-17.129 6.93-3.022 25.97.444 38.87 16.626 19.83 24.867 47.13 23.294 49.48 14.122 2.02-7.887-16.16-15.046-27.26-13.031-11.11 2.016-7.38 16.053 6.05 19.581 19.19 5.038 35.34-6.705 51.5-5.474 26.41 2.012 29.78 16.625 20.19 21.159-9.59 4.535-30.8-3.09-30.8-9.639 0-6.067 13.26-10.009 28.78-.94 20.7 12.091-13.28 35.753-20.85 49.86-11.11 17.129-38.87 5.541-40.89-1.008-1.34-4.334.5-9.572 10.6-9.572 17.16 0 23.73 9.068 18.68 14.106-5.05 5.038-19.69-3.526-29.79-14.106-10.09-10.58-53.51-18.137-54.01-6.55-.51 11.588 27.76 13.099 32.81 9.069 5.05-4.031.51-13.603-12.62-17.633-15.14-5.038-31.3-1.008-45.43 3.526-14.14 4.535-35.34-6.045-29.79-17.129 6.57-13.099 37.36 6.046 28.78 12.595-11.88 9.069-27.06-14.884-44.42-21.663-13.1-5.114-34.15-6.685-36.35-.64-3.49 9.572 30.43 15.107 32.6 3.159 2.76-15.114-23.51-11.152-49.26-11.152-18.67 0-34.01-10.116-35.33-16.081-1.33-5.966 8.07-5.091 21.7.232 11.61 4.534 10.1 19.812-2.02 19.812-12.11 0-21.06-6.985-30.14-16.054-9.6-9.253-43.05-23.679-43.05-12.827 0 9.572 27.76 16.857 31.29 10.812 3.38-5.783-3.02-14.107-15.14-14.61-12.12-.504-11.4-.58-22.72-.736-30.12-.417-48.96-11.084-37.35-16.626 14.08-6.721 28.7 4.216 26.75 9.573-2.02 5.541-15.65.229-31.8-8.565-22.21-12.091-47.34-9.104-45.43-4.166 2.52 6.549 28.06 12.391 32.09 5.338 4.04-7.054-15.44-19.241-30.58-14.203-11.76 3.911-42.02 29.691-48.86 39.767-10.6 15.618-.5 33.251 21.2 40.304 21.71 7.053 277.54 103.274 343.17 118.388 65.62 15.114 107.91-26.374 149.27-57.27 40.06-29.932 41.55-45.506 40.23-140.22-1.06-76.003-3.32-92.534-68.95-110.671-82.29-22.741-310.15-91.959-347-81.025-27.26 8.088-50.57 60.713-33.57 81.025 16.99 20.313 322.66 109.247 379.09 119.564 42.02 7.685 42.42-45.24 74.3-48.437 18.1-1.814 39.88 14.062 79.19 17.907 54.69 5.35 43.45-70.996 43.45-83.591 0-24.182-23.22-32.243-32.31-5.038-16.31 48.825-6.28 79.6 26.03 77.585 32.31-2.015 52.24-114.627 28.2-135.424-11.36-9.819-41.14-16.598-92.36-28.28-61.26-13.969-365.6-53.829-375.66-72.978-10.07-19.15 18.93-76.768 48.72-98.005 12.55-8.95 384.38 59.42 351.12 59.42-32.34 39.705-8.63 107.476-50.53 98.412-110.05-23.804-382.12-84.84-417.58-90.122-31.53-4.697-43.93 9.308-52.01 42.559-8.08 33.251-3.25 50.24 9.37 50.24 13.12 0 16.62-29.454 16.62-45.202 0-18.758-6.45-27.806-22.1-30.645-35.34-6.412-49.63 9.871-57.7 11.887-8.08 2.015-68.76-12.96-90.98-8.93-22.21 4.03-35.33 68.32-37.35 76.381-2.02 8.061-7.07 26.953 12.11 23.93 19.19-3.023 19.19-62.8 32.31-71.868 13.13-9.068 83.82 1.847 94.48 18.049 16.91 25.714 9.86 59.758-10.5 86.574-28.05 36.936-89.64 66.481-173.71 43.398-84.08-23.084-133.5-160.299-293.67-129.423-96.01 18.507-163.55 105.653-208.42 154.38-161.13 157.43-302 237.618-541.29-24.957-239.29-262.576-416.83-252.523-534.54-76.153-86.84 137.775-162.54 187.362-229.64 76.153-82.98-137.528-137.01-31.392-266.31 98.287-130.35 130.741-318.4 129.293-494.011-108.066-175.607-237.359-301.384-366.974-536.856-120.03-150.52 157.854-258.844 263.475-275.568 243.534" stroke="currentColor"/>
</svg>
