<svg fill="none" xmlns="http://www.w3.org/2000/svg" viewBox="0 0 4428 624">
<path d="m4037.45 331.886 64.55-52.972 21.58-17.707 25.92-21.271 24.5-20.105 24.78-20.331 22.72-18.647 32.11-26.353 30.89-25.344L4313.94 105l28.63-23.5 28.03-23 21.94-18L4426 13.042h-16.5l-28.84 23.479L4351.83 60l-24.56 20-27.77 22.608-26.89 21.892-29.47 24-25.64 20.877-31 25.241-28.1 22.882-25.79 21-20.88 17-30.09 24.5-28.29 23.032-31.87 25.954c2.59.926 12.38 8.489 2.63 9.995-10.62 1.641-18.96-8.593-14.72-13.882 5.07-6.316 14.29-11.654 33.35 2.221 14.27 10.393 44.52 45.817 65.83 33.318 12.95-7.592-1.79-27.05 10.23-33.318 11.73-6.11 20.12 8.891 12 16.104-7.22 6.419-14.45 0-7.22-6.664 7.22-6.663 24.39 7.983 8.89 18.88-21.43 15.071-68.51-46.563-101.14-52.608-35.95-6.66-60.12 38.136-67.34 45.355-7.22 7.218-19.75 12.941-30.31 8.499-10.56-4.442-104.35-96.056-113.79-104.385-9.45-8.33-23.06-11.251-38.62 15.403-15.56 26.654-5.91 61.704 11.54 82.459 18.34 21.804 61.81 34.708 78.48 42.482 16.67 7.774 31.25 20.135 27.37 25.132-3.89 4.998-19.59 7.075-12.36-2.365 7.22-9.44 35.01-25.259 52.23-18.04 17.23 7.218 32.79 34.143 44.46 56.355 11.67 22.211 24.45 26.654 32.23 20.545 6.11-4.799-2.43-15.453-7.78-3.887-4.63 9.996 13.89 17.983 23.89 7.219 7.23-7.774-2.49-24.988-29.72-46.089-27.22-21.101-30.29-30.916-25.29-41.091 3.2 3.867 10.7 7.224 13.89 0 3.87-8.751-13.89-21.855-20-3.332-7.01 21.216 17.22 47.199 25.56 71.632 8.33 24.433-14.45 49.697-21.67 54.694-7.23 4.998-15.56-9.015-8.89-13.458 6.66-4.442 23.47-5.552 35.14 4.443 11.67 9.995 19.04 55.38 52.38 82.589 33.34 27.209 81.6 32.48 122.93 7.489 48.69-29.446 50.16-62.458 42.38-78.006-7.78-15.549-40.18-23.878-61.12-31.097-20.94-7.219-79.73-30.541-56.39-48.865 23.34-18.325 55.28 18.324 69.73 43.868 14.44 25.543 34.78 54.584 50.71 57.899 12.36 2.572 33.04-.7 56.94-54.008 23.89-53.308 3.2-92.738-22.92-121.058-26.12-28.32-76.4-49.281-89.73-54.834-13.34-5.552-43.25-13.759-39.58-21.241 6.23-12.719 17.07-4.857 14.3 2.917-2.78 7.774-23.07 41.507-80.31 3.747-57.23-37.76-29.45-77.741-22.22-72.188 7.22 5.553-6.12 17.378-16.12 9.44-4.29-3.402-16.11-21.512-52.79-57.606-55.01-55.529-106.69-4.031-115.59 3.188-8.89 7.218-12.23 16.252-2.22 25.543 13.68 12.697 109.47 79.127 120.59 86.901 11.11 7.774 23.34 18.875 16.11 26.094-7.22 7.218-16.67 1.666-26.11-4.443-9.45-6.108-241.96-182.234-256.97-195.006-15-12.772 3.76-21.581-8.25-33.971-12.22-12.618-16.67-28.113-12.22-37.553 4.44-9.44 19.3-13.327 23.74-10.55 4.45 2.775 6.67 8.329-1.67 18.324-8.33 9.995-32.49 6.253-44.16.145-11.67-6.109-14.45-23.043-11.12-33.038 3.34-9.995 12.31-17.932 18.34-14.162 5.56 3.47 5 14.293 0 22.622-3.33 6.108-20.59 24.988-38.2 6.108-31.59-33.872-51.87-30.549-68.48-21.936-56.47 29.274-51.61 313.184-173.09 385.083-136.52 80.806-301.71-30.807-414.3-102.995-112.59-72.188-248.47-159.635-522.19 67.487-230.78 191.502-379.5 56.295-453.27-25.236-80.79-89.296-216.44-254.3-428.04 73.766-184.04 285.359-526.3 17.633-628.951-73.766-141.708-126.179-366.783-244.493-586.247-11.647-159.179 168.885-293.77 92.531-335.83 27.177" stroke="currentColor"/>
<path d="m4048.56 333.835 28.44-23.941 48-40.406 33.5-28.2 45-37.881 35-29.463 38.5-32.409 33-27.78L4340.6 88l27.4-23.069 27.5-23.15 29.53-24.857h-14.56L4387.03 36.5l-67.53 56.394-32 26.724L4255.91 146 4225 171.812l-26.5 22.13-28 23.383L4139.76 243l-29.26 24.432-22.83 19.068-30.17 25.193-31.17 26.029c2.59.925 7.53 8.488-2.22 9.995-10.62 1.641-13.14-8.593-8.89-13.882 5.07-6.316 14.29-11.654 33.34 2.221 14.27 10.393 38.7 45.817 60.01 33.318 12.95-7.593-1.79-27.05 10.23-33.318 11.73-6.111 20.12 8.891 12 16.104-7.22 6.418-14.45 0-7.22-6.664 7.22-6.663 24.39 7.982 8.89 18.88-21.43 15.07-68.51-41.71-101.14-47.755-35.95-6.66-60.12 33.283-67.34 40.501-7.22 7.219-14.9 10.03-25.46 5.588-10.56-4.442-111.14-88.291-120.58-96.621-9.45-8.329-30.83-16.103-46.39 10.551-15.56 26.654 9.62 58.792 27.08 79.547 18.34 21.804 55.98 37.619 72.65 45.393 16.67 7.775 28.34 24.989 24.45 29.986-3.89 4.998-16.67 2.221-9.44-7.219 7.22-9.44 35.01-19.435 52.23-12.216 17.23 7.219 32.79 28.32 44.46 50.531 11.67 22.212 24.45 26.654 32.23 20.546 6.11-4.799-2.43-15.453-7.78-3.887-4.63 9.995 25.25 29.015 33.6 16.925 11.69-16.925 3.33-34.694-23.9-55.795-27.23-21.101-45.82-30.916-40.82-41.092 3.2 3.867 10.7 7.224 13.89 0 3.87-8.751-13.89-21.854-20-3.331-7.01 21.216 17.22 47.199 25.56 71.632 8.33 24.433-14.45 49.696-21.67 54.694-7.23 4.998-15.56-4.162-8.89-8.605 6.66-4.442 20.56-5.553 32.23 4.443 11.67 9.995 12.24 50.527 45.58 77.736 33.35 27.209 84.52 27.626 125.84 2.636 48.7-29.446 56.96-57.605 49.18-73.154-7.78-15.548-40.18-23.877-61.12-31.096-20.94-7.219-83.61-40.247-60.27-58.572 33.88-26.602 68.86 28.031 83.31 53.574 14.45 25.544 25.08 54.585 41.01 57.9 12.36 2.572 47.6-.7 71.49-54.008 23.9-53.308-6.5-92.738-32.62-121.058-26.12-28.32-81.25-49.281-94.58-54.834-13.34-5.553-38.4-13.759-34.73-21.241 6.23-12.719 16.11-4.857 13.33 2.917-2.78 7.774-26.95 31.8-84.19-5.959-57.23-37.76-29.45-68.035-22.22-62.482 7.22 5.553-6.12 17.378-16.12 9.44-4.29-3.402-16.11-16.659-52.79-52.753-55.01-55.529-124.44-7.219-133.33 0-8.89 7.219-.31 14.587 9.7 23.878 13.68 12.697 115.29 77.185 126.41 84.959 11.11 7.774 23.34 14.993 16.11 22.212-7.22 7.219-16.67 1.666-26.11-4.442-9.45-6.109-241.96-176.412-256.97-189.183-15-12.772 3.76-21.582-8.25-33.972-12.22-12.617-16.67-28.112-12.22-37.552 4.44-9.44 13.47-13.327 17.92-10.551 4.44 2.776 6.67 8.33-1.67 18.325-8.33 9.995-26.67 11.106-38.34 4.997-11.67-6.108-14.45-21.1-11.12-31.096 3.34-9.995 12.79-20.546 18.34-16.104 5.56 4.442 5 9.44 0 17.77-3.33 6.108-20.59 24.988-38.2 6.108-31.59-33.872-43.94-50.92-74.15-37.31-82.83 37.31-67.3 342.139-196.39 408.14-160.15 60.085-295.1-47.903-389.21-114.425-83.47-59.001-234.81-147.193-524.13 78.028-289.32 225.22-419.79 6.794-478.51-59.208-62.04-69.734-205.42-201.18-412.51 89.296-144.62 202.857-385.28 141.222-578.479-33C760.015 178.045 576.33 47.745 340.713 339.166c-110.65 136.855-240.711 100.943-320.3 23.294" stroke="currentColor"/>
<path d="m4048.56 339.658 20.94-17.627 51.71-43.531 28.29-23.813 25.56-21.517 32.44-27.307 21-17.678L4257.23 164l30.27-25.481 30-25.253 29.42-24.766 26.73-22.5 29.85-25.129 21.53-18.123h-14.56L4393 37.338l-44 36.744-25 20.878-32 26.723-30.5 25.471-41.5 34.657L4188.64 208l-30.14 25.17-31.5 26.306L4085.66 294l-25.99 21.701-20.67 17.265-12.67 10.58c2.59.925 7.53 8.488-2.22 9.995-10.62 1.64-13.14-8.593-8.89-13.883 5.07-6.316 14.29-11.654 33.34 2.222 14.27 10.393 38.7 45.816 60.01 33.317 12.95-7.592-1.79-27.049 10.23-33.317 11.73-6.111 20.12 8.891 12 16.103-7.22 6.419-14.45 0-7.22-6.663 7.22-6.664 24.39 7.982 8.89 18.88-21.43 15.07-68.51-41.711-101.14-47.755-35.95-6.661-60.12 33.282-67.34 40.501-7.22 7.219-14.9 10.03-25.46 5.588-10.56-4.443-111.14-88.292-120.58-96.621-9.45-8.329-30.83-16.103-46.39 10.551-15.56 26.654 9.62 58.791 27.08 79.546 18.34 21.804 55.98 37.62 72.65 45.394 16.67 7.774 28.34 24.988 24.45 29.986-3.89 4.997-16.67 2.221-9.44-7.219 7.22-9.44 35.01-19.435 52.23-12.216 17.23 7.218 32.79 28.319 44.46 50.531 11.67 22.212 24.45 26.654 32.23 20.546 6.11-4.8-2.43-15.454-7.78-3.887-4.63 9.995 25.25 29.014 33.6 16.925 11.69-16.925 3.33-34.695-23.9-55.796-27.23-21.101-45.82-30.915-40.82-41.091 3.2 3.867 10.7 7.224 13.89 0 3.87-8.751-13.89-21.854-20-3.332-7.01 21.216 17.22 47.2 25.56 71.633 8.33 24.432-14.45 49.696-21.67 54.694-7.23 4.997-15.56-4.163-8.89-8.605 6.66-4.443 20.56-5.553 32.23 4.442 11.67 9.995 12.24 50.527 45.58 77.736 33.35 27.21 84.52 27.627 125.84 2.637 48.7-29.447 56.96-57.606 49.18-73.154-7.78-15.548-40.18-23.878-61.12-31.096-20.94-7.219-83.61-40.248-60.27-58.572 33.88-26.603 68.86 28.031 83.31 53.574 14.45 25.543 25.08 54.584 41.01 57.899 12.36 2.573 47.6-.7 71.5-54.007 23.89-53.308-6.51-92.739-32.63-121.058-26.12-28.32-81.25-49.281-94.58-54.834-13.34-5.553-38.4-13.759-34.73-21.241 6.23-12.719 16.11-4.858 13.33 2.916-2.78 7.774-26.95 31.801-84.19-5.959-57.23-37.76-29.45-68.034-22.22-62.482 7.22 5.553-6.12 17.379-16.12 9.44-4.29-3.401-16.11-16.658-52.79-52.752-55.01-55.529-124.44-7.219-133.33 0-8.89 7.219-.31 14.587 9.7 23.877 13.68 12.697 115.29 77.186 126.41 84.96 11.11 7.774 23.34 14.993 16.11 22.211-7.22 7.219-16.67 1.666-26.11-4.442-9.45-6.108-241.96-176.411-256.97-189.183-15-12.771 3.76-21.581-8.25-33.971-12.22-12.618-16.67-28.113-12.22-37.553 4.44-9.44 13.47-13.327 17.92-10.55 4.44 2.776 6.67 8.33-1.67 18.324-8.33 9.996-26.67 11.106-38.34 4.998-11.67-6.108-14.45-21.101-11.12-31.096 3.34-9.995 12.79-20.546 18.34-16.104 5.56 4.442 5 9.44 0 17.77-3.33 6.107-20.59 24.988-38.2 6.107-31.59-33.872-47.3-56.722-74.15-37.31-51.54 37.26-42.9 376.247-196.39 417.847-193.15 39.539-290.21-65.131-389.21-124.132-99-59.001-215.48-128.711-520.25 75.116-304.77 203.828-419.3 9.706-485.3-56.295s-203.83-231.005-390.18 99.002c-134.27 237.765-397.95 97.061-588.193-42.707-190.239-139.767-384.36-302.83-646.424-34.942C222.974 465.345 26.883 449.815 1 368.284" stroke="#currentColor"/>
</svg>
