<svg fill="none" xmlns="http://www.w3.org/2000/svg" viewBox="0 0 4493 656">
<path d="M4482.53 302.633c-67.69 89.722-207.44 298.049-380.95 273.277-166.2-23.728-136.73-161.533-213.56-203.555-67.6-36.975-128.85-8.989-175.48 33.794-58.63 53.794-90.98 165.373-46.28 165.373 60.98 0 301.99-341.868 178.25-393.594-46.29-19.353-84.59 37.288-102.01 59.142-6.59 8.263-17.54 23.357-3.71 24.896 29.21 3.248 31.77-34.876 31.77-55.391 0-12.405-10.35-65.59-38.2-65.59-38.72 0-41.09-21.208-59.44-26.216-11.27-3.077-25.56 9.446-34.27 17.438-8.71 7.992-24.09 31.623-18.5 30.832 16.9-2.397 18.78 5.759 22.94 3.649 4.15-2.111-.04-11.456-13.21-10.943-13.17.513-6.49 3.686 5.3 10.766 10.25 6.155 20.96 7.772 37.74 5.188 19.99-3.077 34.61-14.357 50.22-11.283 13.32 2.623 25.98 21.3 26.93 18.463 1.02-3.077-14.63-19.943-22.83-24.046-8.41-4.211-38.94-.059-44.07 6.608-6.01 7.82-1.02 12.515 6.15 15.387 5.12 2.051 13.64-.577 19.98 0 5.64.513 8.51 2.427 11.79 4.616 3.07 2.051 7.21 1.099 4.04-2.565-6.66-7.693-16.85-10.77-24.54-6.667-4.72 2.52-8.87 11.551 1.03 24.618 9.89 13.067 34.84-6.154 34.84-7.18 0-.513-6.42 3.382-11.44-1.026-10.6-9.302-28.76-5.446-39.8 2.051-18.12 12.31-12.75 37.515-15.09 46.16-2.13 7.875-17.31 9.686-21.92 8.66-7.43-1.654-29.55-17.363-1.93-17.363 7.7 0 19.97 4.973 19.97 8.703 0 3.729-19.01 4.49-29.2 1.143-8.23-2.704-14.06-7.239-10.47-14.419 3.58-7.181 21.24-25.703 21.24-33.396-1.54-2.565-12.82 3.59-16.91 4.103-4.1.513-5.13-14.243-1.03-18.464 5.12-5.277 21.52 12.822 12.3 10.77-12.3-7.693-19.47-5.128-22.03-3.077-3.8 3.04 2.04 9.232.51 13.335-2.54 6.782-9.46 14.932-10.48 31.857-1.09 17.918 3.17 25.091 6.83 33.279 4.61 10.303 16.18 3.471 26.33 4.985 22.15 3.301 31.91 8.921 45.4 3.969-18.61-1.354-20.07-13.066-33.31-15.967-5.75-1.259-9.67 0-14.02 0-4.36 0-5.37-1.286-9.74-.253-7.49 1.766-6.64 9.137-7.04 19.503 1.2 1.023 3.21 10.77 12.66 12.505 12.59 2.315 28.96-3.832 35.63-10.087-10.72-2.418-13.14 1.712-30.55.57-8.7-.57-10.5-5.304-18.4-2.254-3.82 1.477-2.92 11.21-1.86 21.508 1.12 10.972 1.7 22.585 6.69 25.528 16.91 12.822 92.23-4.982 103.56-11.283 18.45-10.258 17.94-41.661 33.31-27.814 11.69 10.531 23.06-6.037 35.36-20.91 19.99-24.177-8.29-40.465-24.09-25.644-17.05 15.993-47.88 88.666 17.49 95.47 87.76 9.135 210.57-74.442 203.1-185.662C3987.97 3.87 3844.51-.427 3757.98 14.245c-66.49 11.274-276.7 41.03-306.42 155.916-29.72 114.885 97.36 154.354 186.52 170.766 34.45 6.34 64.43 27.352 45.98 49.772-29.71 36.122-92.09 52.567-117.14 113.86-58.96 118.734-87 140.008-168.23 145.81-81.23 5.802-185.67 20.308-442.89-217.576-257.23-237.884-390.67-297.839-573.44-172.128-182.76 125.711-288.17 108.305-414.84-75.426-126.68-183.732-282.37-211.775-494.15 127.645-211.77 339.419-409.04 208.873-532.817 29.977-123.777-178.897-192.435-293.97-494.141-73.493C144.705 489.846 20.928 200.711.622 102.076" stroke="currentColor"/>
<path d="M4482.53 302.633c-67.69 89.722-207.44 307.719-380.95 282.947-166.2-23.728-136.73-186.675-213.56-228.698-67.6-36.975-128.85 6.484-175.48 49.267-58.63 53.794-90.98 170.208-46.28 170.208 60.98 0 301.99-346.703 178.25-398.429-46.29-19.353-84.59 37.288-102.01 59.142-6.59 8.263-17.54 23.357-3.71 24.896 29.21 3.248 31.77-34.876 31.77-55.391 0-12.405-10.35-65.59-38.2-65.59-38.72 0-41.09-21.208-59.44-26.216-11.27-3.077-25.56-.224-34.27 7.768-8.71 7.992-24.09 41.293-18.5 40.502 16.9-2.397 18.78 5.759 22.94 3.649 4.15-2.111-.04-11.456-13.21-10.943-13.17.513-6.49 3.686 5.3 10.766 10.25 6.155 20.96 7.772 37.74 5.188 19.99-3.077 34.61-14.357 50.22-11.284 13.32 2.624 25.98 21.301 26.93 18.464 1.02-3.077-14.63-19.943-22.83-24.046-8.41-4.211-38.94-.059-44.07 6.608-6.01 7.82-1.02 12.515 6.15 15.387 5.12 2.051 13.64-.577 19.98 0 5.64.513 8.51 2.427 11.79 4.616 3.07 2.051 7.21 1.099 4.04-2.565-6.66-7.693-16.85-10.77-24.54-6.667-4.72 2.52-8.87 11.551 1.03 24.618 9.89 13.067 39.68-6.155 39.68-7.18 0-.513-11.26 3.382-16.28-1.026-10.6-9.302-28.76-5.446-39.8 2.051-18.12 12.31-12.75 37.515-15.09 46.16-2.13 7.875-17.31 9.686-21.92 8.66-7.43-1.654-29.55-17.363-1.93-17.363 7.7 0 19.97 4.973 19.97 8.703 0 3.729-19.01 4.49-29.2 1.143-8.23-2.704-14.06-7.239-10.47-14.419 3.58-7.181 21.24-25.703 21.24-33.396-1.54-2.565-12.82 3.59-16.91 4.103-4.1.513-5.13-14.243-1.03-18.464 5.12-5.277 21.52 12.822 12.3 10.77-12.3-7.693-19.47-5.128-22.03-3.077-3.8 3.04 2.04 9.232.51 13.335-2.54 6.782-9.46 14.932-10.48 31.857-1.09 17.918 3.17 25.091 6.83 33.279 4.61 10.303 16.18 3.471 26.33 4.985 22.15 3.301 31.91 8.921 45.4 3.969-18.61-1.354-20.07-13.066-33.31-15.967-5.75-1.259-9.67 0-14.02 0-4.36 0-5.37-1.286-9.74-.253-7.49 1.766-6.64 9.137-7.04 19.503 1.2 1.023 3.21 10.77 12.66 12.505 12.59 2.315 28.96-3.832 35.63-10.087-10.72-2.418-13.14 1.712-30.55.57-8.7-.57-10.5-5.304-18.4-2.254-3.82 1.477-2.92 11.21-1.86 21.508 1.12 10.972 1.7 22.585 6.69 25.528 16.91 12.822 92.23-4.982 103.56-11.283 18.45-10.258 17.94-46.496 33.31-32.649 11.69 10.531 23.06-1.202 35.36-16.075 19.99-24.177-8.29-40.465-24.09-25.644-17.05 15.993-47.88 90.6 17.49 97.404 87.76 9.135 229.91-76.376 222.44-187.597-9.56-142.26-173.64-154.942-260.17-140.27-66.49 11.274-294.76 49.416-324.48 164.302-29.72 114.885 116.7 154.354 205.86 170.766 34.45 6.34 74.1 27.352 55.65 49.772-29.71 36.122-101.76 52.567-126.81 113.86-18.45 45.133-49.19 120.019-138.35 135.173-158.5 22.241-258.75 3.089-506.62-249.033-195.33-198.691-326.51-260.071-556.99-112.658-201.14 128.642-303.65 30.796-406.15-107.88-102.5-138.677-251.6-265.519-504.78 159.162-239.81 402.275-477.698 119.909-539.587-27.077-61.888-146.985-201.137-214.675-440.955-44.482C233.67 427.957 77.014 292.576 1.588 112.713" stroke="currentColor"/>
<path d="M4492.2 302.633c-67.69 89.722-217.11 298.049-390.62 273.277-166.2-23.728-136.73-171.203-213.56-213.225-67.6-36.975-128.85.681-175.48 43.464-58.63 53.794-90.98 155.703-46.28 155.703 60.98 0 301.99-341.868 178.25-393.594-46.29-19.353-84.59 46.958-102.01 68.812-6.59 8.263-17.54 23.357-3.71 24.896 29.21 3.248 31.77-34.876 31.77-55.391 0-12.405-10.35-75.26-38.2-75.26-38.72 0-41.09-11.538-59.44-16.546-11.27-3.077-25.56 9.446-34.27 17.438-8.71 7.992-24.09 31.623-18.5 30.832 16.9-2.397 18.78 5.759 22.94 3.649 4.15-2.111-.04-14.357-13.21-13.844-13.17.513-6.49 6.587 5.3 13.667 10.25 6.155 20.96 7.772 37.74 5.188 19.99-3.077 34.61-14.357 50.22-11.283 13.32 2.623 25.98 21.3 26.93 18.463 1.02-3.077-14.63-23.811-22.83-27.914-8.42-4.211-38.94 3.809-44.07 10.476-6.01 7.82-1.02 12.515 6.15 15.387 5.12 2.051 13.64-.577 19.98 0 5.64.513 8.51 2.427 11.79 4.616 3.07 2.051 7.21 1.099 4.04-2.565-6.66-7.693-16.85-10.77-24.54-6.667-4.72 2.52-5.97 11.551 3.93 24.618 9.9 13.067 31.94-6.154 31.94-7.18 0-.513-6.42 3.382-11.44-1.026-10.6-9.302-28.76-5.446-39.8 2.051-18.12 12.31-12.75 37.515-15.09 46.16-2.13 7.875-17.31 9.686-21.92 8.66-7.43-1.654-29.55-14.462-1.93-14.462 7.7 0 19.97 2.072 19.97 5.802 0 3.729-19.01 4.49-29.2 1.143-8.23-2.704-10.19-7.239-6.61-14.419 3.59-7.181 17.37-25.703 17.37-33.396-1.53-2.565-12.81 3.59-16.9 4.103-4.1.513-5.13-14.243-1.03-18.464 5.12-5.277 21.52 12.822 12.3 10.77-12.3-7.693-19.47-8.029-22.03-5.978-3.8 3.04 2.04 12.133.51 16.236-2.54 6.782-6.56 14.932-7.58 31.857-1.09 17.918.27 25.091 3.93 33.279 4.61 10.303 16.18 3.471 26.33 4.985 22.15 3.301 31.91 8.921 45.4 3.969-18.61-1.354-20.07-10.165-33.31-13.066-5.75-1.259-9.67 0-14.02 0-4.36 0-5.37-4.187-9.74-3.154-7.49 1.766-6.64 9.137-7.04 19.503 1.2 1.023 3.21 10.77 12.66 12.505 12.59 2.315 28.96-3.832 35.63-10.087-10.72-2.418-13.14 4.613-30.55 3.472-8.7-.571-10.5-8.206-18.4-5.156-3.82 1.477-2.92 11.21-1.87 21.508 1.13 10.972 1.71 17.75 6.7 20.693 16.91 12.822 92.23-.147 103.56-6.448 18.45-10.258 17.94-41.661 33.31-27.814 11.69 10.531 18.22-6.037 30.52-20.91 19.99-24.177-3.45-40.465-19.25-25.644-17.05 15.993-52.72 88.666 12.65 95.47 87.77 9.135 225.08-74.442 217.61-185.662C3997.64 3.87 3844.51-.427 3757.98 14.245c-66.49 11.274-286.37 41.03-316.09 155.916-29.72 114.885 107.03 154.354 196.19 170.766 34.45 6.34 64.43 27.352 45.98 49.772-29.72 36.122-101.76 52.567-126.81 113.86-18.45 45.133-79.37 133.865-168.81 147.261-126.1 17.89-232.47-38.197-433.61-206.456-201.14-168.26-338.45-353.925-587.94-168.26-249.49 185.666-342.32-22.419-406.14-106.943-63.83-84.524-261.1-262.454-475.77 130.152-214.68 392.605-433.22 162.457-541.527 34.812C835.149 207.48 722.976 75.967 456.081 265.5 189.187 455.034 22.861 240.358 7.39 112.713" stroke="currentColor"/>
</svg>
